/* XPM */
static char * ram_xpm[] = {
"25 25 20 1",
" 	c None",
".	c #21C33D",
"+	c #22C63E",
"@	c #21C43D",
"#	c #000100",
"$	c #000000",
"%	c #000300",
"&	c #21C53E",
"*	c #000801",
"=	c #21C23D",
"-	c #22C73E",
";	c #000200",
">	c #000500",
",	c #1FBC3A",
"'	c #22C83F",
")	c #24CE41",
"!	c #012104",
"~	c #000601",
"{	c #22C93F",
"]	c #22C53E",
"                 .       ",
"                ..       ",
"               .. +.     ",
"              ..   @..   ",
"             ..  #$ ..   ",
"            ... $$$% ..  ",
"           ..+&  $$$$ .& ",
"          ..   *  $* =- $",
"         ..  ;$     .&   ",
"        ... >$$$ ,@.. $  ",
"       .. .' $$$$ ..     ",
"      ..   -)!$$ =. ~$   ",
"     ..  #$ {)  =- $     ",
"    ..] ;$$$ &-.]        ",
"   ..  $ $$$ -.. $       ",
"  ..   $  $$ .. ~        ",
" ..  $$ $   =&  $        ",
"... $$$$ @... $$         ",
"  .& >$$ ...             ",
"  ..@ >* ..              ",
"   ...  .. ~             ",
"   .....&  $             ",
"     ..+ $               ",
"      & $                ",
"       $                 "};
