/* XPM */
static char * weather_xpm[] = {
"25 25 2 1",
" 	c None",
".	c #B11938",
"           ...           ",
"         .......         ",
"         .. . ..         ",
"        ...   ...        ",
"        ..     ..        ",
"        ..     ..        ",
"        ..     ..        ",
"        ..     ..        ",
"        ..  .  ..        ",
"        ..  .  ..        ",
"        ..  .  ..        ",
"        ..  .  ..        ",
"        ..  .  ..        ",
"        ..  .  ..        ",
"        ..  .  ..        ",
"       ...  .  ...       ",
"       ..  ...  ..       ",
"       .  .....  .       ",
"      .. ....... ..      ",
"       . ....... .       ",
"       .  .....  .       ",
"       ..  ...  ..       ",
"       ...     ...       ",
"        .........        ",
"          .....          "};
